<svg xmlns="http://www.w3.org/2000/svg" xmlns:xlink="http://www.w3.org/1999/xlink" fill="none"
  version="1.1" width="48" height="48" viewBox="0 0 48 48">
  <defs>
    <filter id="master_svg0_1412_43670/789_60213" filterUnits="objectBoundingBox"
      color-interpolation-filters="sRGB" x="-0.2222222222222222" y="-0.2222222222222222"
      width="1.4444444444444444" height="1.4444444444444444">
      <feFlood flood-opacity="0" result="BackgroundImageFix" />
      <feColorMatrix in="SourceAlpha" type="matrix"
        values="0 0 0 0 0 0 0 0 0 0 0 0 0 0 0 0 0 0 127 0" />
      <feOffset dy="0" dx="0" />
      <feGaussianBlur stdDeviation="2" />
      <feColorMatrix type="matrix" values="0 0 0 0 0 0 0 0 0 0 0 0 0 0 0 0 0 0 0.5 0" />
      <feBlend mode="normal" in2="BackgroundImageFix" result="effect1_dropShadow" />
      <feBlend mode="normal" in="SourceGraphic" in2="effect1_dropShadow" result="shape" />
    </filter>
    <clipPath id="master_svg1_1412_43670/544_64562">
      <rect x="12" y="12" width="24" height="24" rx="0" />
    </clipPath>
  </defs>
  <g>
    <g>
      <g filter="url(#master_svg0_1412_43670/789_60213)">
        <ellipse cx="24" cy="24" rx="18" ry="18" fill="#858585" fill-opacity="1" />
      </g>
      <g clip-path="url(#master_svg1_1412_43670/544_64562)">
        <g>
          <g>
            <g>
              <rect x="15.75" y="24.75" width="16.5" height="7.5" rx="0.25" fill-opacity="0"
                stroke-opacity="1" stroke="#FFFFFF" fill="none" stroke-width="1.5" />
            </g>
            <g>
              <rect x="23.8125" y="17.8125" width="0.375" height="6.375" rx="0.1875"
                fill-opacity="0" stroke-opacity="1" stroke="#FFFFFF" fill="none"
                stroke-width="1.125" />
            </g>
            <g>
              <rect x="18.5625" y="27.5625" width="0.375" height="1.875" rx="-0.1875"
                fill-opacity="0" stroke-opacity="1" stroke="#FFFFFF" fill="none"
                stroke-width="1.125" />
            </g>
            <g>
              <rect x="21.5625" y="27.5625" width="0.375" height="1.875" rx="-0.1875"
                fill-opacity="0" stroke-opacity="1" stroke="#FFFFFF" fill="none"
                stroke-width="1.125" />
            </g>
          </g>
          <g>
            <path
              d="M18.1066589,22.08642581875Q18.1804025,22.16554071875,18.2573547,22.24243161875L19.3179245,21.18188471875C18.4740667,20.33797831875,18,19.19349001875,18,18.00006101875C18,16.80654191875,18.4741378,15.66197511875,19.3181076,14.81805421875L18.2574463,13.75732421875C17.13221681,14.88250501875,16.500048547983,16.40859751875,16.5,17.999877918750002L16.5,18.00939941875C16.5011507124,18.74216411875,16.63649243,19.46837421875,16.89930725,20.15228271875Q16.92705262,20.22430701875,16.95671082,20.296020518749998Q16.98811939,20.37184761875,17.02136993,20.44635011875C17.29046828,21.048997418749998,17.6571575,21.603159918750002,18.1066589,22.08642581875ZM28.681891999999998,14.81805421875L29.742554,13.75732421875C30.867783,14.88250501875,31.499951,16.40859771875,31.5,17.999877918750002L31.5,18.00939941875C31.498848000000002,18.74216941875,31.363506,19.46837611875,31.100693,20.15228271875Q31.072949,20.22429751875,31.043266,20.296020518749998C30.738785,21.03110451875,30.305253999999998,21.67982151875,29.742645,22.24243161875L28.682076000000002,21.18188471875C29.525934,20.33797831875,30,19.19349001875,30,18.00006101875C30,16.80654191875,29.525863,15.66197541875,28.681891999999998,14.81805421875ZM20.3786774,15.87860111875C19.8160682,16.44121031875,19.5,17.20422841875,19.5,17.999877918750002C19.5,18.795527418749998,19.8160682,19.55854511875,20.3786774,20.12115481875L21.4393387,19.06060791875C21.1580343,18.779303518749998,21,18.39770271875,21,17.999877918750002C21,17.60205311875,21.1580343,17.22045231875,21.4393387,16.93914791875L20.3786774,15.87860111875ZM26.560661,16.93914791875L27.621323,15.87860111875C28.183931,16.44121031875,28.5,17.20422841875,28.5,17.999877918750002C28.5,18.795527418749998,28.183931,19.55854511875,27.621323,20.12115481875L26.560661,19.06060791875C26.841967,18.779303518749998,27,18.39770271875,27,17.999877918750002C27,17.60205341875,26.841966,17.22045281875,26.560661,16.93914791875Z"
              fill-rule="evenodd" fill="#FFFFFF" fill-opacity="1" />
          </g>
        </g>
      </g>
    </g>
  </g>
</svg>